<svg xmlns="http://www.w3.org/2000/svg" width="820" height="840" viewBox="0 0 820 840">
<rect width="820" height="840" fill="#fafafa"/>
<text x="28" y="32" font-family="sans-serif" font-size="20">local_p4_development_0003</text>
<text x="28" y="58" font-family="sans-serif" font-size="13">Synthetic local case; blue: path, red: sources, arrows: emission orientation</text>
<circle cx="410.00" cy="400.00" r="273.91" fill="none" stroke="#aaa" stroke-dasharray="5 4"/>
<polyline points="410.00,400.00 410.00,400.00 512.48,292.34 415.34,241.82 310.66,289.31 288.72,276.30 256.98,254.09 233.51,236.84 216.23,219.50 164.28,258.14 268.14,154.28 336.97,153.05 410.00,116.27 551.86,154.28 479.75,151.97 483.38,149.37 483.14,152.74 588.53,201.31 592.16,198.23 607.83,216.24 603.32,213.83 655.72,258.14 693.73,400.00 665.27,349.75 669.12,351.97 664.50,347.06 573.81,400.00 555.42,438.52 655.72,541.86 658.85,498.65 656.62,494.41 551.86,645.72 491.91,541.86 507.48,571.68 511.45,569.44 541.51,622.73 537.54,624.97 542.74,629.53 410.00,683.73 399.93,659.11 268.14,645.72 164.28,541.86 266.06,623.90 328.09,541.86 424.28,533.61 287.63,455.28 246.19,400.00 150.60,360.91 126.27,400.00 167.71,502.94" fill="none" stroke="#3977bc" stroke-width="1.3" opacity=".65"/>
<circle cx="543.66" cy="631.39" r="4.00" fill="#c64343" />
<text x="549.66" y="625.39" font-family="sans-serif" font-size="11">8</text>
<path d="M543.66,631.39 l9.77,17.45" stroke="#c64343" stroke-width="2"/>
<circle cx="657.08" cy="495.41" r="4.00" fill="#c64343" />
<text x="663.08" y="489.41" font-family="sans-serif" font-size="11">5</text>
<path d="M657.08,495.41 l18.13,8.43" stroke="#c64343" stroke-width="2"/>
<circle cx="663.63" cy="346.28" r="4.00" fill="#c64343" />
<text x="669.63" y="340.28" font-family="sans-serif" font-size="11">10</text>
<path d="M663.63,346.28 l19.66,-3.69" stroke="#c64343" stroke-width="2"/>
<circle cx="602.67" cy="213.39" r="4.00" fill="#c64343" />
<text x="608.67" y="207.39" font-family="sans-serif" font-size="11">13</text>
<path d="M602.67,213.39 l14.31,-13.97" stroke="#c64343" stroke-width="2"/>
<circle cx="483.14" cy="152.67" r="4.00" fill="#c64343" />
<text x="489.14" y="146.67" font-family="sans-serif" font-size="11">9</text>
<path d="M483.14,152.67 l6.88,-18.78" stroke="#c64343" stroke-width="2"/>
<circle cx="335.30" cy="152.95" r="4.00" fill="#c64343" />
<text x="341.30" y="146.95" font-family="sans-serif" font-size="11">15</text>
<circle cx="216.13" cy="219.58" r="4.00" fill="#c64343" />
<text x="222.13" y="213.58" font-family="sans-serif" font-size="11">14</text>
<circle cx="150.15" cy="360.36" r="4.00" fill="#c64343" />
<text x="156.15" y="354.36" font-family="sans-serif" font-size="11">20</text>
<circle cx="167.92" cy="501.00" r="4.00" fill="#c64343" />
<text x="173.92" y="495.00" font-family="sans-serif" font-size="11">3</text>
<circle cx="265.53" cy="621.63" r="4.00" fill="#c64343" />
<text x="271.53" y="615.63" font-family="sans-serif" font-size="11">12</text>
<circle cx="400.05" cy="660.00" r="4.00" fill="#c64343" />
<text x="406.05" y="654.00" font-family="sans-serif" font-size="11">16</text>
<circle cx="410.00" cy="400.00" r="5.00" fill="#111" />
<text x="28" y="815" font-family="sans-serif" font-size="13">Black: start (0,0). Dashed circle: 1800 m target boundary. Truth is shown only after simulation.</text>
</svg>
